# xmcd
#
# Track frame offsets: 
#        150
#        27370
#        44133
#        59060
#        78746
#
# Disc length: 1185 seconds
#
# Revision: 0
# Processed by: cddbd v1.5.2PL0 Copyright (c) Steve Scherf et al.
# Submitted via: ExactAudioCopy v0.95b3
#
DISCID=48049f05
DTITLE=Led Zeppelin  - Lost BBC Sessions - 1969-06-16 London UK  FLAC
DYEAR=1900
DGENRE=
TTITLE0=Interview with Chris Grant
TTITLE1=The Girl I Love She Got Long Black Hair
TTITLE2=Communication Breakdown
TTITLE3=What Is and What Should Never Be
TTITLE4=Something Else
EXTD=
EXTT0=
EXTT1=
EXTT2=
EXTT3=
EXTT4=
PLAYORDER=
